# xmcd
#
# Track frame offsets:
# 150
# 11605
# 31842
# 45391
# 61235
# 78360
# 96918
# 111852
# 128585
# 144780
# 164076
# 177236
#
# Disc length: 2579 seconds
#
#
# Revision: 0
# Processed by: cddbd v1.5.1PL0 Copyright (c) Steve Scherf et al.
# Submitted via: FreeRIP 2.30 
#
DISCID=900a110c
DTITLE=Mike Bowling - Where I Stand
DYEAR=2004
DGENRE=Gospel
TTITLE0=Trading A Cross For A Crown
TTITLE1=The Heat Of The Battle
TTITLE2=Give You The Glory
TTITLE3=Solid Rock And Shifting Sand
TTITLE4=God Of Every Situation
TTITLE5=One
TTITLE6=It'll Be Worth It All
TTITLE7=He Leads Me Each Step Of The Way
TTITLE8=Movin' On
TTITLE9=No Time Like The Present
TTITLE10=I've Never Seen Jesus
TTITLE11=So Long For Now
EXTD=
EXTT0=
EXTT1=
EXTT2=
EXTT3=
EXTT4=
EXTT5=
EXTT6=
EXTT7=
EXTT8=
EXTT9=
EXTT10=
EXTT11=
PLAYORDER=
